<svg xmlns="http://www.w3.org/2000/svg" width="66" height="66" viewBox="0 0 66 66"><g><g><path fill="#505050" d="M15.395 28.577v2.202a3.301 3.301 0 0 0-3.301 3.302h-2.2a5.51 5.51 0 0 1 5.5-5.504zm4.4 12.108v2.2a5.51 5.51 0 0 1-5.5-5.503h2.2a3.302 3.302 0 0 0 3.3 3.303zm0 6.603v2.202a3.301 3.301 0 0 0-3.3 3.302h-2.2a5.51 5.51 0 0 1 5.5-5.504zm42.37-5.446a6.539 6.539 0 0 1 1.643 4.346 6.61 6.61 0 0 1-6.602 6.604h-.11a13.296 13.296 0 0 1-10.978 7.665A6.613 6.613 0 0 1 39.601 66a5.51 5.51 0 0 1-5.501-5.503v-3.303h-2.2v3.303A5.51 5.51 0 0 1 26.397 66a6.614 6.614 0 0 1-6.519-5.542 13.296 13.296 0 0 1-10.976-7.666h-.094a6.612 6.612 0 0 1-6.618-6.604 6.538 6.538 0 0 1 1.643-4.347 7.704 7.704 0 0 1 2.758-14.287v-1.178a9.918 9.918 0 0 1 8.86-9.849c.535-8.88 7.614-15.96 16.49-16.496 9.693-.585 18.025 6.8 18.61 16.496a9.918 9.918 0 0 1 8.855 9.849v1.179a7.706 7.706 0 0 1 2.758 14.288zM31.02 32.838l-7.46-13.066h-2.663V17.57h8.123l3.001-5.996a1.1 1.1 0 0 1 2.08.383l.716 7.223.5-1a1.1 1.1 0 0 1 .984-.61h8.803v2.202H42.44l-7.46 13.066c7.682-.991 13.432-7.537 13.427-15.286C48.4 9.046 41.503 2.155 33 2.162c-7.746-.006-14.29 5.746-15.281 13.43-1.088 8.437 4.867 16.157 13.3 17.246zm10.783 15.551v-2.201H24.197v2.201zm-16.209 2.202a2.2 2.2 0 0 0 1.905 1.1H38.5a2.2 2.2 0 0 0 1.905-1.1zm15.109-6.604v-1.101H25.297v1.1zm1.1-3.302v-2.202H24.197v2.202zm-16.505-7.303v2.9h15.405v-2.9a17.38 17.38 0 0 1-15.405 0zM33 31.862l6.907-12.09H36.98l-1.901 3.795a1.1 1.1 0 0 1-2.08-.383l-.716-7.223-1.6 3.202a1.101 1.101 0 0 1-.984.609h-3.606zm26.81 8.609a5.503 5.503 0 0 0-1.502-10.793 1.1 1.1 0 0 1-1.1-1.1v-2.202a7.71 7.71 0 0 0-6.662-7.627 17.605 17.605 0 0 1-7.643 13.37v4.163a1.1 1.1 0 0 1 1.1 1.1v4.403a1.1 1.1 0 0 1-1.1 1.1v1.102a1.1 1.1 0 0 1 1.1 1.1v4.403a1.1 1.1 0 0 1-1.1 1.1h-.156a4.402 4.402 0 0 1-4.245 3.302H27.498a4.402 4.402 0 0 1-4.245-3.301h-.156a1.1 1.1 0 0 1-1.1-1.101v-4.403a1.1 1.1 0 0 1 1.1-1.1v-1.101a1.1 1.1 0 0 1-1.1-1.1v-4.404a1.1 1.1 0 0 1 1.1-1.1v-4.163a17.604 17.604 0 0 1-7.643-13.369 7.71 7.71 0 0 0-6.661 7.626v2.201a1.1 1.1 0 0 1-1.1 1.1 5.504 5.504 0 0 0-1.5 10.793 1.1 1.1 0 0 1 .281 1.993 4.392 4.392 0 0 0 2.319 8.128c.203-.006.405-.028.605-.064a1.15 1.15 0 0 1 1.23.689 11.063 11.063 0 0 0 10.268 7.08 1.1 1.1 0 0 1 1.1 1.1 4.402 4.402 0 0 0 4.402 4.402 3.301 3.301 0 0 0 3.3-3.301v-3.303h-2.2v-2.2H39.6v2.2h-3.3v3.303a3.301 3.301 0 0 0 3.3 3.301 4.402 4.402 0 0 0 4.402-4.402 1.1 1.1 0 0 1 1.1-1.1 11.062 11.062 0 0 0 10.268-7.08c.182-.485.68-.775 1.19-.695a4.357 4.357 0 0 0 2.964-8.058 1.1 1.1 0 0 1 .283-1.992zm-3.703-6.39h-2.2a3.301 3.301 0 0 0-3.302-3.302v-2.202a5.509 5.509 0 0 1 5.502 5.504zm-4.401 3.301a5.51 5.51 0 0 1-5.502 5.504v-2.201c1.823 0 3.301-1.479 3.301-3.303zm0 15.41h-2.201a3.301 3.301 0 0 0-3.3-3.302v-2.202a5.509 5.509 0 0 1 5.5 5.504zM12.416 2.94l1.557-1.557 3.3 3.303-1.555 1.556zM9.893 8.765h4.401v2.201h-4.4zm41.812 0h4.4v2.201h-4.4zm-2.978-4.08l3.3-3.303 1.557 1.557-3.301 3.302z"/></g></g></svg>