<svg xmlns="http://www.w3.org/2000/svg" width="65" height="65" viewBox="0 0 65 65"><g><g><path fill="#505050" d="M47.667 34.667v28.166c0 1.197-.97 2.167-2.167 2.167H2.167A2.167 2.167 0 0 1 0 62.833V1.083C0 .485.485 0 1.083 0H39v.008c.286-.003.562.109.766.309l5.417 5.417c.2.204.31.48.307.766h.01v26c1.197 0 2.167.97 2.167 2.167zm-7.584-29.25h1.718l-1.718-1.719zM2.167 32.5h2.166v-3.25c0-.599.485-1.084 1.084-1.084h21.666c.341 0 .662.161.867.434l2.925 3.9h12.458V7.583H39A1.083 1.083 0 0 1 37.917 6.5V2.166H2.167zm24.375-2.167H22.75l1.625 2.167h3.792zm-6.5 0H16.25l1.625 2.167h3.792zm-6.5 0H6.5V32.5h8.667zM45.5 34.667H2.167v28.166H45.5zm-2.167 16.25v8.666c0 .598-.485 1.083-1.083 1.083H27.083A1.083 1.083 0 0 1 26 59.583v-8.666c0-.599.485-1.084 1.083-1.084H42.25c.598 0 1.083.485 1.083 1.084zM41.167 52h-13v6.5h13zM65 10.833v53.083c0 .599-.485 1.084-1.083 1.084h-13a1.083 1.083 0 0 1-1.084-1.084V10.833c0-.214.064-.423.182-.601l6.5-9.75a1.125 1.125 0 0 1 1.803 0l6.5 9.75c.119.178.182.387.182.601zm-2.167 43.334H58.5a1.083 1.083 0 0 1-1.083-1.084v-13H55.25v13c0 .598-.485 1.084-1.083 1.084H52v8.666h10.833zm0-43.01l-5.416-8.124L52 11.158V52h1.083V39c0-.598.485-1.084 1.084-1.084H58.5c.598 0 1.083.486 1.083 1.084v13h3.25zM4.333 3.25H22.75v2.166H4.333zm36.825 14.075A8.667 8.667 0 0 1 32.5 26a8.667 8.667 0 1 1 0-17.334c.296 0 .588.015.879.048.04.003.08.017.12.017.251.029.5.064.745.114h.01a8.605 8.605 0 0 1 4.374 2.36c.007.007.01.016.016.024a8.667 8.667 0 0 1 2.514 6.096zm-7.575-2.607l2.677-2.678c-.032-.023-.063-.048-.095-.07-.065-.045-.132-.084-.197-.125a6.471 6.471 0 0 0-1.323-.64c-.086-.03-.17-.064-.256-.09-.115-.035-.233-.062-.35-.09l-.332-.08c-.041-.008-.083-.012-.124-.019zm-7.485 1.532h5.319v-5.32a6.505 6.505 0 0 0-5.32 5.32zm11.694-2.678l-4.525 4.526c-.204.203-.48.317-.767.318h-6.402a6.5 6.5 0 0 0 10.186 4.208 6.49 6.49 0 0 0 1.508-9.052zM4.333 6.5H13v2.166H4.333zm17.907 7.418l-8.667 5.417c-.25.156-.551.204-.836.132l-3.833-.958-3.922 2.932-1.3-1.733 4.334-3.25c.26-.196.596-.264.913-.184l3.886.975 8.276-5.172zm21.093 23.998v4.334c0 .598-.485 1.083-1.083 1.083H5.417a1.083 1.083 0 0 1-1.084-1.083v-4.334c0-.598.485-1.083 1.084-1.083H42.25c.598 0 1.083.485 1.083 1.083zM41.167 39H6.5v2.166h34.667z"/></g></g></svg>