<svg xmlns="http://www.w3.org/2000/svg" width="65" height="65" viewBox="0 0 65 65"><g><g><path fill="#505050" d="M65 1.083v4.334c0 .598-.485 1.083-1.083 1.083H61.75v40.083c0 .599-.485 1.084-1.083 1.084h-7.908a8.667 8.667 0 0 1-3.403 4.638l-7.258 12.166a1.083 1.083 0 0 1-.931.529H1.084a1.083 1.083 0 0 1-1.077-1.197L2.175 43.22c.045-.423.332-.78.735-.915l.342-.114V6.5H1.084A1.083 1.083 0 0 1 .001 5.417V1.083C.001.485.486 0 1.084 0h62.833C64.515 0 65 .485 65 1.083zM11.918 41.587L4.255 44.14 2.288 62.833h9.63zm0-6.302c-.095-.073-.193-.14-.285-.216A17.236 17.236 0 0 1 5.55 23.813a1.06 1.06 0 0 1-.132.02V41.47l6.5-2.167zM13.904 6.5H5.418v8.487A15.231 15.231 0 0 1 13.904 6.5zM6.501 20.583v.116a46.579 46.579 0 0 1 15.365-6.446l.65-.145a1.083 1.083 0 0 1 1.318 1.058 5.423 5.423 0 0 0 5.417 5.417h3.25c0-7.18-5.82-13-13-13s-13 5.82-13 13zm11.247 42.25l-2.467-4.93a1.083 1.083 0 0 1-.076-.768l2.718-9.967-3.839 1.28v14.385zm-1.071-17.53l-2.593-1.3v2.16zM19.5 61.494l2.096-4.191-2.096-7.686-2.096 7.686zm5.416-13.046l-3.84-1.283 2.718 9.967c.07.257.043.53-.076.769l-2.465 4.932h3.663zm0-4.445l-2.592 1.293 2.592.867zm0-7.354a12.206 12.206 0 0 1-10.833 0v4.931l5.417 2.709 5.416-2.709zm1.064-3.246a15.047 15.047 0 0 0 5.384-10.653h-2.114a7.596 7.596 0 0 1-7.467-6.255 44.41 44.41 0 0 0-14.15 6.06 15.067 15.067 0 0 0 5.385 10.848 10.121 10.121 0 0 0 12.962 0zM45.908 53.85c-.843.208-1.707.315-2.574.317a10.64 10.64 0 0 1-3.753-.705l-1.743 4.359-2.012-.804 1.805-4.511a8.892 8.892 0 0 1-3.315-3.792 4.304 4.304 0 0 1-3.657-5.936l-3.575-1.191v21.246h13.468zm-3.658-11.6h-7.583a2.166 2.166 0 1 0 2.03 2.887c.154-.432.563-.72 1.02-.72h4.533a1.074 1.074 0 0 0 .494-2.033 1.176 1.176 0 0 0-.15-.065 1.066 1.066 0 0 0-.344-.07zm-4.333-2.167v-8.666a1.083 1.083 0 0 0-2.166 0v8.666zm2.167-9.75v-5.416h-2.167v3.449a3.25 3.25 0 0 1 1.967 1.967zm0 9.75h2.166v-2.167a1.083 1.083 0 0 0-2.166 0zM50.917 45.5c0-.065-.016-.13-.016-.195a3.142 3.142 0 0 1-3.234-.65 3.225 3.225 0 0 1-2.167.845h-.845a3.23 3.23 0 0 1-2.405 1.083h-3.844a4.349 4.349 0 0 1-1.897 1.733A7.81 7.81 0 0 0 43.334 52c4.181 0 7.583-2.915 7.583-6.5zM45.5 43.333c.599 0 1.084-.485 1.084-1.083v-4.334a1.083 1.083 0 0 0-2.167 0v3.012a3.23 3.23 0 0 1 1.083 2.405zm5.417-5.417a1.083 1.083 0 0 0-2.167 0v4.334a1.083 1.083 0 0 0 2.167 0zM59.583 6.5H25.097a15.18 15.18 0 0 1 9.57 14.083v1.083c0 .599-.485 1.084-1.083 1.084h-.052a17.208 17.208 0 0 1-6.163 12.319c-.093.076-.19.143-.285.216v4.018l4.673 1.555.317.108c.45-.34.963-.587 1.51-.729v-8.82a3.25 3.25 0 0 1 2.167-3.051v-4.533c0-.598.485-1.083 1.083-1.083h4.333c.598 0 1.083.485 1.083 1.083v7.584c0 .598-.485 1.083-1.083 1.083h-1.083v2.361a3.148 3.148 0 0 1 3.25.65 3.2 3.2 0 0 1 4.333 0 3.235 3.235 0 0 1 5.417 2.405v4.334c-.002.448-.096.89-.278 1.3.175.635.269 1.29.278 1.95h6.5zm3.25-4.334H2.168v2.167h60.665zm-13 15.167v14.084c0 .598-.484 1.083-1.083 1.083h-4.333a1.083 1.083 0 0 1-1.083-1.083V17.333c0-.598.485-1.083 1.083-1.083h4.333c.598 0 1.084.485 1.084 1.083zm-2.166 1.083H45.5v11.917h2.167zm9.75-8.666v21.667c0 .598-.485 1.083-1.084 1.083H52a1.083 1.083 0 0 1-1.083-1.083V9.75c0-.598.485-1.083 1.083-1.083h4.333c.599 0 1.084.485 1.084 1.083zm-2.167 1.083h-2.166v19.5h2.166z"/></g></g></svg>