<svg xmlns="http://www.w3.org/2000/svg" width="65" height="65" viewBox="0 0 65 65"><g><g><path fill="#505050" d="M64.987 1.244l-2.414 14.021a36.848 36.848 0 0 1-6.31 15.073l.542 8.153c.02.312-.095.617-.316.838L42.694 53.123a1.083 1.083 0 0 1-1.841-.695l-.589-8.835-2.664 2.665a1.042 1.042 0 0 1-1.236.197 14.15 14.15 0 0 1-12.53 7.706H11.915a1.084 1.084 0 0 1-1.084-1.084v-11.92a14.153 14.153 0 0 1 7.706-12.533 1.073 1.073 0 0 1 .196-1.237l3.305-3.306-8.39-.56a1.084 1.084 0 0 1-.695-1.848l13.79-13.796c.224-.217.527-.331.838-.315l7.977.534A36.789 36.789 0 0 1 49.72 2.41L63.735-.008a1.083 1.083 0 0 1 1.252 1.252zM23.158 21.98l.189-.36a36.79 36.79 0 0 1 9.494-11.535l-4.912-.325-11.755 11.754zm11.557 22.924l-1.874-1.875a6.472 6.472 0 0 1-5.757 3.546H19.5a1.084 1.084 0 0 1-1.084-1.083v-7.586a6.474 6.474 0 0 1 3.545-5.76l-1.874-1.874a11.978 11.978 0 0 0-7.088 10.885v10.837h10.834a11.974 11.974 0 0 0 10.882-7.09zm-14.132-6.998v6.502h6.5a4.326 4.326 0 0 0 4.118-3.016l-7.603-7.604a4.325 4.325 0 0 0-3.015 4.118zm19.053 3.25L23.833 25.35l-2.801 2.802.079.078 3.59 3.59 8.466 8.47 3.59 3.592.077.077zm14.974-3.012l-.35-5.245a36.732 36.732 0 0 1-10.898 8.744l-1.02.535.514 7.723zM62.59 2.39L50.086 4.545a34.886 34.886 0 0 0-24.82 18.084l-.374.715 16.753 16.755.715-.375a34.887 34.887 0 0 0 18.075-24.827zM42.7 62.83h4.968v2.168h-6.5a1.084 1.084 0 0 1-1.02-1.462l.325-.855a4.698 4.698 0 0 0-8.602-3.752 10.92 10.92 0 0 1-9.82 6.07H19.5a1.083 1.083 0 0 1-.766-1.85l6.5-6.503 1.532 1.533-4.65 4.652a8.766 8.766 0 0 0 7.817-4.877 6.865 6.865 0 0 1 11.784-.837 6.87 6.87 0 0 1 .983 5.714zm7.135 0h2.167v2.168h-2.167zm4.334 0h2.167v2.168h-2.167zm-46.27.318l7.583-7.586 1.532 1.533-7.583 7.585zM9.432 52.76l-7.584 7.586a1.083 1.083 0 0 1-1.85-.766v-4.784a15.6 15.6 0 0 1 4.597-11.101A6.459 6.459 0 0 0 6.5 39.098v-.109a6.509 6.509 0 0 0-6.5-6.502V30.32a8.678 8.678 0 0 1 8.667 8.67v.108a8.61 8.61 0 0 1-2.539 6.13 13.446 13.446 0 0 0-3.962 9.568v2.168L7.9 51.228zM.31 63.148l2.167-2.167 1.532 1.532-2.167 2.167zM54.17 17.315a6.501 6.501 0 0 1-6.5 6.503 5.67 5.67 0 0 1-.603-.033l-1.882 1.883-1.083 1.083a4.147 4.147 0 1 1-5.866-5.867L39.32 19.8l1.881-1.882a5.671 5.671 0 0 1-.032-.603 6.501 6.501 0 1 1 13 0zm-11.283 7.586L40.084 22.1l-.317.317a1.982 1.982 0 0 0 2.802 2.803zm9.116-7.586a4.334 4.334 0 1 0-8.667 0c.003.264.03.527.082.786.065.351-.047.712-.299.965l-1.502 1.5.635.636 2.304-2.306 1.002-3.008 2.058.686-.398 1.192 1.191-.398.686 2.06-3.007 1.002-2.304 2.304.635.635 1.5-1.501c.253-.252.613-.364.964-.3.259.053.522.08.786.082a4.334 4.334 0 0 0 4.334-4.335zm1.4-7.268l2.167-2.168 1.532 1.533-2.166 2.167zm1.85 6.185h3.25v2.167h-3.25zm-8.667-9.754h2.167V9.73h-2.167z"/></g></g></svg>