<svg xmlns="http://www.w3.org/2000/svg" width="65" height="65" viewBox="0 0 65 65"><g><g><path fill="#505050" d="M65 63.917c0 .598-.486 1.083-1.084 1.083H1.085a1.084 1.084 0 0 1-.677-1.93l5.416-4.333c.192-.154.431-.238.677-.237h10.326l3.61-4.334H5.419A5.423 5.423 0 0 1 .001 48.75V5.416A5.423 5.423 0 0 1 5.418 0h54.165a5.423 5.423 0 0 1 5.416 5.416V48.75a5.423 5.423 0 0 1-5.416 5.416h-15.02l3.612 4.334h10.324c.247 0 .485.083.678.237l5.416 4.333c.257.206.407.517.407.847zM59.583 52a3.25 3.25 0 0 0 3.25-3.25V5.416a3.25 3.25 0 0 0-3.25-3.25H5.418a3.25 3.25 0 0 0-3.25 3.25V48.75A3.25 3.25 0 0 0 5.418 52zm-39.936 6.5h25.707l-3.612-4.334H23.259zm41.18 4.333l-2.706-2.167H6.881l-2.708 2.167zm-.16-57.417v39c0 .599-.486 1.084-1.084 1.084H5.418a1.083 1.083 0 0 1-1.083-1.084v-39c0-.598.485-1.083 1.083-1.083h54.165c.598 0 1.083.485 1.083 1.083zM58.498 6.5H6.501v36.833H58.5zM27.084 47.666h10.833v2.167H27.084zm2.166-35.75v2.167a4.333 4.333 0 0 0-4.333 4.334h-2.166a6.507 6.507 0 0 1 6.5-6.5zM56.333 9.75v4.333c0 .599-.485 1.084-1.083 1.084H38.43a9.728 9.728 0 0 1-.702 8.085c-2.655 4.67-8.594 6.304-13.265 3.65L23.2 28.165l.318.318a1.083 1.083 0 0 1 0 1.532l-8.667 8.666a4.147 4.147 0 1 1-5.865-5.865l8.667-8.667a1.083 1.083 0 0 1 1.531 0l.318.318 1.265-1.265a9.642 9.642 0 0 1-.696-8.036H9.75a1.083 1.083 0 0 1-1.083-1.084V9.75c0-.599.485-1.084 1.083-1.084H55.25c.598 0 1.083.485 1.083 1.084zM21.15 13a9.826 9.826 0 0 1 1.986-2.167H10.834V13zm.069 16.25l-.317-.318-2.167-2.166-.317-.318-7.901 7.901a1.981 1.981 0 0 0 2.801 2.802zm1.473-3.64a10.142 10.142 0 0 1-.635-.635L21.033 26l.634.635zm14.142-7.193a7.592 7.592 0 0 0-7.584-7.584 7.583 7.583 0 1 0 7.584 7.584zM54.166 13v-2.167H35.365A9.826 9.826 0 0 1 37.35 13zm2.167 7.583v6.5h-2.167v-3.885l-6.817 6.823c-.33.33-.833.411-1.25.203l-3.678-1.842-9.201 8.18a1.083 1.083 0 0 1-1.32.09l-2.568-1.712-6.96 5.966-1.409-1.645 7.583-6.5a1.084 1.084 0 0 1 1.306-.08l2.553 1.704 9.124-8.112c.33-.294.807-.357 1.203-.16l3.635 1.818 6.267-6.265H48.75V19.5h6.5c.598 0 1.083.485 1.083 1.083z"/></g></g></svg>