<svg xmlns="http://www.w3.org/2000/svg" width="65" height="65" viewBox="0 0 65 65"><g><g><path fill="#505050" d="M65 15.167v8.666a3.25 3.25 0 0 1-3.25 3.25h-6.717l-3.282 3.945a1.084 1.084 0 0 1-1.665 0L46.8 27.083h-1.056a17.224 17.224 0 0 1-5.376 7.985c-.093.077-.19.143-.285.217v4.018l9.01 3.007c.402.135.69.492.734.915l2.166 20.583A1.083 1.083 0 0 1 50.916 65H14.084a1.083 1.083 0 0 1-1.08-1.196L15.17 43.22c.044-.422.332-.78.734-.914l9.01-3.003v-4.018c-.095-.074-.193-.14-.286-.217a17.152 17.152 0 0 1-1.553-1.485h-1.408a6.507 6.507 0 0 1-6.5-6.5c0-.598.485-1.083 1.083-1.083h2.167v2.167h-.946a4.333 4.333 0 0 0 3.88 3.222 17.237 17.237 0 0 1-2.804-7.576 1 1 0 0 1-1.215-1.063v-2.167c0-.366.028-.724.054-1.083h-3.52l-3.282 3.944a1.083 1.083 0 0 1-1.665 0L5.633 19.5H3.25A3.25 3.25 0 0 1 0 16.25v-13A3.25 3.25 0 0 1 3.25 0h26a3.25 3.25 0 0 1 3.25 3.25v2.167a15.151 15.151 0 0 1 12.43 6.5h16.82a3.25 3.25 0 0 1 3.25 3.25zM30.333 5.59V3.25c0-.598-.485-1.084-1.083-1.084h-26c-.598 0-1.083.486-1.083 1.084v13c0 .598.485 1.083 1.083 1.083h2.89c.32 0 .626.142.832.39l2.778 3.335 2.778-3.336c.206-.247.511-.39.833-.389h4.332A15.189 15.189 0 0 1 30.333 5.59zm-5.416 35.997l-7.663 2.553-1.968 18.693h9.63zm5.83 21.246l-2.467-4.93a1.083 1.083 0 0 1-.075-.768l2.718-9.967-3.84 1.28v14.385zm-1.071-17.53l-2.593-1.3v2.16zM32.5 61.493l2.094-4.191-2.094-7.686-2.096 7.686zm5.417-13.046l-3.84-1.283 2.717 9.966c.07.258.044.531-.076.77l-2.465 4.932h3.664zm0-4.445l-2.593 1.293 2.593.867zm0-7.354a12.2 12.2 0 0 1-10.834 0v4.931L32.5 44.29l5.417-2.709zm2.166 4.938v21.246h9.631L47.746 44.14zm4.282-18.837H42.25a7.597 7.597 0 0 1-7.466-6.255 44.44 44.44 0 0 0-14.15 6.06 15.066 15.066 0 0 0 3.432 8.862h7.35v2.166h-5.16a10.113 10.113 0 0 0 12.723-.18 15.044 15.044 0 0 0 5.386-10.653zm1.135-2.167c0-7.18-5.82-13-13-13s-13 5.82-13 13v.116a46.61 46.61 0 0 1 15.365-6.446l.65-.145a1.083 1.083 0 0 1 1.318 1.058 5.423 5.423 0 0 0 5.417 5.417zm17.333-5.416c0-.599-.485-1.084-1.083-1.084H46.182a15.047 15.047 0 0 1 1.485 6.5v1.083c0 .599-.485 1.084-1.084 1.084h-.052a17.3 17.3 0 0 1-.253 2.166h1.028c.322 0 .627.143.833.39l2.778 3.335 2.777-3.336c.207-.246.512-.389.833-.389h7.223c.598 0 1.083-.485 1.083-1.083z"/></g></g></svg>